<svg width="983" height="276" viewBox="0 0 983 276" fill="none" xmlns="http://www.w3.org/2000/svg">
<path d="M119.147 3.64357V270.144H62.7023V57.1259H61.138L0 95.3833V45.4144L66.0916 3.64357H119.147Z" fill="black"/>
<path d="M280.107 273.788C261.683 273.788 245.258 270.405 230.832 263.638C216.492 256.871 205.108 247.545 196.678 235.661C188.248 223.776 183.859 210.156 183.512 194.801H238.262C238.871 205.124 243.216 213.496 251.298 219.915C259.38 226.335 268.983 229.545 280.107 229.545C288.972 229.545 296.793 227.593 303.572 223.689C310.437 219.698 315.782 214.19 319.606 207.163C323.517 200.049 325.472 191.894 325.472 182.699C325.472 173.33 323.473 165.088 319.475 157.975C315.565 150.861 310.133 145.309 303.181 141.318C296.228 137.328 288.276 135.289 279.325 135.202C271.504 135.202 263.899 136.807 256.512 140.017C249.212 143.227 243.52 147.608 239.435 153.16L189.248 144.181L201.892 3.64357H365.101V49.7086H248.43L241.521 116.464H243.085C247.778 109.871 254.861 104.405 264.334 100.068C273.807 95.7303 284.409 93.5615 296.141 93.5615C312.219 93.5615 326.558 97.3352 339.159 104.883C351.761 112.43 361.711 122.797 369.012 135.983C376.312 149.083 379.918 164.177 379.831 181.267C379.918 199.225 375.747 215.187 367.317 229.154C358.974 243.034 347.285 253.965 332.251 261.946C317.303 269.841 299.922 273.788 280.107 273.788Z" fill="black"/>
<path d="M452.18 239.174C443.576 239.174 436.189 236.138 430.019 230.065C423.936 223.992 420.894 216.619 420.894 207.943C420.894 199.442 423.936 192.155 430.019 186.082C436.189 180.009 443.576 176.973 452.18 176.973C460.523 176.973 467.823 180.009 474.08 186.082C480.337 192.155 483.466 199.442 483.466 207.943C483.466 213.669 481.989 218.917 479.034 223.689C476.166 228.373 472.386 232.147 467.693 235.01C463 237.786 457.829 239.174 452.18 239.174ZM452.18 108.396C443.576 108.396 436.189 105.36 430.019 99.2871C423.936 93.2145 420.894 85.8406 420.894 77.1655C420.894 68.6638 423.936 61.4201 430.019 55.4342C436.189 49.3616 443.576 46.3253 452.18 46.3253C460.523 46.3253 467.823 49.3616 474.08 55.4342C480.337 61.4201 483.466 68.6638 483.466 77.1655C483.466 82.9778 481.989 88.2697 479.034 93.041C476.166 97.7256 472.386 101.456 467.693 104.232C463 107.008 457.829 108.396 452.18 108.396Z" fill="black"/>
<path d="M627.219 273.788C607.752 273.788 590.414 270.448 575.206 263.768C560.084 257.001 548.135 247.719 539.357 235.921C530.667 224.036 526.191 210.329 525.93 194.801H582.766C583.114 201.307 585.243 207.033 589.154 211.977C593.152 216.835 598.453 220.609 605.058 223.298C611.663 225.988 619.093 227.332 627.349 227.332C635.953 227.332 643.557 225.814 650.162 222.778C656.766 219.742 661.937 215.534 665.674 210.156C669.411 204.777 671.28 198.574 671.28 191.547C671.28 184.434 669.281 178.144 665.283 172.679C661.372 167.127 655.724 162.789 648.337 159.666C641.037 156.543 632.346 154.982 622.265 154.982H597.367V113.601H622.265C630.782 113.601 638.299 112.126 644.817 109.177C651.422 106.227 656.549 102.15 660.199 96.9448C663.849 91.653 665.674 85.4936 665.674 78.4668C665.674 71.7869 664.067 65.9312 660.851 60.8996C657.722 55.7812 653.29 51.7907 647.554 48.9279C641.906 46.0651 635.301 44.6337 627.74 44.6337C620.092 44.6337 613.096 46.0217 606.752 48.7977C600.408 51.487 595.324 55.3475 591.5 60.3791C587.677 65.4107 585.634 71.3098 585.374 78.0764H531.275C531.536 62.7214 535.924 49.1881 544.441 37.4767C552.958 25.7652 564.429 16.6129 578.856 10.0198C593.369 3.33993 609.751 0 628.001 0C646.425 0 662.546 3.33993 676.364 10.0198C690.182 16.6997 700.914 25.7218 708.562 37.0863C716.297 48.364 720.121 61.0297 720.034 75.0834C720.121 90.0047 715.471 102.454 706.085 112.43C696.786 122.406 684.663 128.739 669.715 131.429V133.511C689.356 136.026 704.304 142.836 714.559 153.941C724.9 164.958 730.028 178.752 729.941 195.321C730.028 210.503 725.639 223.992 716.775 235.791C707.997 247.589 695.874 256.871 680.405 263.638C664.936 270.405 647.207 273.788 627.219 273.788Z" fill="black"/>
<path d="M875.192 276C852.771 275.913 833.478 270.405 817.313 259.474C801.236 248.543 788.852 232.711 780.161 211.977C771.558 191.244 767.299 166.303 767.386 137.154C767.386 108.092 771.688 83.3248 780.292 62.8515C788.982 42.3781 801.366 26.8062 817.444 16.1358C833.608 5.3786 852.858 0 875.192 0C897.527 0 916.733 5.3786 932.811 16.1358C948.975 26.893 961.403 42.5082 970.093 62.9816C978.784 83.3682 983.086 108.092 982.999 137.154C982.999 166.389 978.653 191.374 969.963 212.107C961.359 232.841 949.019 248.673 932.941 259.604C916.864 270.535 897.614 276 875.192 276ZM875.192 229.284C890.488 229.284 902.698 221.607 911.823 206.252C920.948 190.897 925.467 167.864 925.38 137.154C925.38 116.941 923.295 100.111 919.123 86.6648C915.039 73.2183 909.216 63.1117 901.655 56.3451C894.181 49.5785 885.36 46.1952 875.192 46.1952C859.984 46.1952 847.817 53.786 838.692 68.9675C829.567 84.149 824.961 106.878 824.874 137.154C824.874 157.628 826.917 174.718 831.001 188.424C835.173 202.044 841.039 212.281 848.599 219.134C856.16 225.901 865.025 229.284 875.192 229.284Z" fill="black"/>
</svg>
