<svg width="107" height="179" viewBox="0 0 107 179" fill="none" xmlns="http://www.w3.org/2000/svg">
<path d="M35.6667 0C26.2073 0 17.1353 3.77177 10.4465 10.4856C3.75773 17.1994 0 26.3052 0 35.8V143.2C0 152.695 3.75773 161.801 10.4465 168.514C17.1353 175.228 26.2073 179 35.6667 179H71.3333C80.7927 179 89.8647 175.228 96.5535 168.514C103.242 161.801 107 152.695 107 143.2V107.4C107 97.9052 103.242 88.7994 96.5535 82.0856C89.8647 75.3718 80.7927 71.6 71.3333 71.6H35.6667V35.8H107V0H35.6667ZM35.6667 107.4H71.3333V143.2H35.6667V107.4Z" fill="black"/>
</svg>
