<svg width="108" height="179" viewBox="0 0 108 179" fill="none" xmlns="http://www.w3.org/2000/svg">
<path d="M36 107.4H72V143.2H36M36 35.8H72V71.6H36M36 179H72C81.5478 179 90.7045 175.228 97.4558 168.514C104.207 161.801 108 152.695 108 143.2V116.35C108 109.229 105.155 102.4 100.092 97.3642C95.0284 92.3288 88.1608 89.5 81 89.5C88.1608 89.5 95.0284 86.6712 100.092 81.6358C105.155 76.6005 108 69.7711 108 62.65V35.8C108 26.3052 104.207 17.1994 97.4558 10.4856C90.7045 3.77177 81.5478 0 72 0H36C26.4522 0 17.2955 3.77177 10.5442 10.4856C3.79285 17.1994 0 26.3052 0 35.8V62.65C0 69.7711 2.84463 76.6005 7.90811 81.6358C12.9716 86.6712 19.8392 89.5 27 89.5C19.8392 89.5 12.9716 92.3288 7.90811 97.3642C2.84463 102.4 0 109.229 0 116.35V143.2C0 152.695 3.79285 161.801 10.5442 168.514C17.2955 175.228 26.4522 179 36 179Z" fill="black"/>
</svg>
