<svg width="106" height="179" viewBox="0 0 106 179" fill="none" xmlns="http://www.w3.org/2000/svg">
<path d="M70.6667 179C80.0376 179 89.0248 175.228 95.6511 168.514C102.277 161.801 106 152.695 106 143.2V35.8C106 26.3052 102.277 17.1994 95.6511 10.4856C89.0248 3.77177 80.0376 0 70.6667 0H35.3333C25.9623 0 16.9752 3.77177 10.3489 10.4856C3.72261 17.1994 0 26.3052 0 35.8V71.6C0 81.0947 3.72261 90.2006 10.3489 96.9144C16.9752 103.628 25.9623 107.4 35.3333 107.4H70.6667V143.2H0V179H70.6667ZM70.6667 71.6H35.3333V35.8H70.6667V71.6Z" fill="black"/>
</svg>
